<svg width="85" height="113" viewBox="0 0 85 113" fill="none" xmlns="http://www.w3.org/2000/svg">
<path fill-rule="evenodd" clip-rule="evenodd" d="M42.0338 0C18.8378 0 0.033802 18.804 0.033802 42V99.5C-0.132865 101.333 0.233802 105 3.0338 105C4.8545 105 7.35173 103.106 9.46969 101.499C11.4232 100.017 13.054 98.7803 13.5338 99.5C14.3671 99.1667 17.1338 100 21.5338 106C25.9338 112 27.3671 112.5 27.5338 112C28.5338 112.167 31.3338 111.2 34.5338 106C37.7338 100.8 40.8671 99.5 42.0338 99.5C43.2005 99.5 46.3338 100.8 49.5338 106C52.7338 111.2 55.5338 112.167 56.5338 112C56.7004 112.5 58.1338 112 62.5338 106C66.9338 100 69.7004 99.1667 70.5338 99.5C71.0136 98.7803 72.6444 100.017 74.5979 101.499C76.7159 103.106 79.2131 105 81.0338 105C83.8338 105 84.2005 101.333 84.0338 99.5V42C84.0338 18.804 65.2298 0 42.0338 0ZM23.0338 42C23.0338 46.4183 19.4521 50 15.0338 50C10.6155 50 7.03381 46.4183 7.03381 42C7.03381 37.5817 10.6155 34 15.0338 34C19.4521 34 23.0338 37.5817 23.0338 42ZM77.0338 42C77.0338 46.4183 73.4521 50 69.0338 50C64.6155 50 61.0338 46.4183 61.0338 42C61.0338 37.5817 64.6155 34 69.0338 34C73.4521 34 77.0338 37.5817 77.0338 42ZM58.0338 44H26.0338V52.5161C26.0338 59.9631 33.1972 66 42.0338 66C50.8704 66 58.0338 59.9631 58.0338 52.5161V44Z" fill="white"/>
</svg>
