<svg width="108" height="143" viewBox="0 0 108 143" fill="none" xmlns="http://www.w3.org/2000/svg">
<path d="M0 5C0 2.23857 2.23858 0 5 0H86.7458C88.065 0 89.3309 0.521416 90.2674 1.45063L105.602 16.6655C106.548 17.6043 107.08 18.882 107.08 20.2148V42.1183C107.08 43.1434 106.249 43.9743 105.224 43.9743C104.199 43.9743 103.368 44.8053 103.368 45.8304V49.9709C103.368 50.9959 104.199 51.8269 105.224 51.8269C106.249 51.8269 107.08 52.6579 107.08 53.683V137.06C107.08 139.821 104.842 142.06 102.08 142.06H68.3042C67.8218 142.06 67.3713 141.819 67.1037 141.418C66.8361 141.016 66.3856 140.775 65.9032 140.775H41.0281C40.4463 140.775 39.8883 141.006 39.477 141.418C39.0656 141.829 38.5077 142.06 37.9259 142.06H5C2.23858 142.06 0 139.821 0 137.06V67.0323C0 65.9678 0.862947 65.1049 1.92745 65.1049C2.99195 65.1049 3.85489 64.2419 3.85489 63.1774V36.6215C3.85489 35.557 2.99195 34.694 1.92745 34.694C0.862947 34.694 0 33.8311 0 32.7666V5Z" fill="#3D8399"/>
</svg>
