<svg width="47" height="47" viewBox="0 0 47 47" fill="none" xmlns="http://www.w3.org/2000/svg">
<path fill-rule="evenodd" clip-rule="evenodd" d="M23.5 3.79032C12.6146 3.79032 3.79032 12.6146 3.79032 23.5C3.79032 34.3854 12.6146 43.2097 23.5 43.2097C34.3854 43.2097 43.2097 34.3854 43.2097 23.5C43.2097 12.6146 34.3854 3.79032 23.5 3.79032ZM0 23.5C0 10.5213 10.5213 0 23.5 0C36.4787 0 47 10.5213 47 23.5C47 36.4787 36.4787 47 23.5 47C10.5213 47 0 36.4787 0 23.5Z" fill="#010101" fill-opacity="0.41"/>
<path d="M17.7457 22.3042C22.9246 18.073 27.9906 13.6952 33.2823 9.58819C30.5066 13.8533 27.6521 18.0616 24.8765 22.3265C22.4958 22.3379 20.1152 22.3381 17.7457 22.3042ZM22.1235 24.6621C24.5154 24.6621 26.8961 24.6621 29.2768 24.696C24.0642 28.9044 19.0208 33.316 13.7177 37.4118C16.4934 33.1468 19.3479 28.9272 22.1235 24.6621Z" fill="#010101" fill-opacity="0.41"/>
</svg>
