<svg width="74" height="88" viewBox="0 0 74 88" fill="none" xmlns="http://www.w3.org/2000/svg">
<path d="M73.4981 51.1509C73.4981 71.4007 57.0823 87.8165 36.8324 87.8165C16.5826 87.8165 0.166777 71.4007 0.166777 51.1509C0.166777 30.901 16.5826 14.4852 36.8324 14.4852C57.0823 14.4852 73.4981 30.901 73.4981 51.1509ZM9.33319 51.1509C9.33319 66.3383 21.645 78.6501 36.8324 78.6501C52.0198 78.6501 64.3317 66.3383 64.3317 51.1509C64.3317 35.9634 52.0198 23.6516 36.8324 23.6516C21.645 23.6516 9.33319 35.9634 9.33319 51.1509Z" fill="white"/>
<path d="M36.8324 28.3367C36.8324 27.6867 36.3052 27.1568 35.6559 27.188C31.5162 27.3874 27.4924 28.6363 23.9812 30.8216C20.1381 33.2135 17.0678 36.6285 15.1285 40.668C13.1892 44.7075 12.461 49.2048 13.0288 53.6351C13.5967 58.0654 15.4371 62.2458 18.3354 65.6885C21.2337 69.1311 25.0703 71.6939 29.3972 73.0777C33.7242 74.4615 38.3631 74.6093 42.7725 73.5037C47.1818 72.3982 51.1797 70.0849 54.2995 66.834C57.1379 63.8763 59.1429 60.2535 60.1288 56.3219C60.2906 55.6765 59.8593 55.0433 59.2055 54.9199C58.5582 54.7978 57.9371 55.222 57.7737 55.8601C56.8775 59.3597 55.0831 62.5837 52.5528 65.2204C49.745 68.1463 46.1469 70.2282 42.1785 71.2232C38.21 72.2182 34.035 72.0852 30.1408 70.8397C26.2465 69.5943 22.7936 67.2878 20.1851 64.1894C17.5767 61.0911 15.9202 57.3287 15.4092 53.3414C14.8981 49.3542 15.5535 45.3065 17.2989 41.671C19.0443 38.0354 21.8076 34.962 25.2663 32.8093C28.3931 30.8632 31.9717 29.7422 35.6561 29.545C36.3051 29.5103 36.8324 28.9867 36.8324 28.3367Z" fill="white"/>
<path d="M11.3658 22.1165L7.63854 19.0354C6.86779 18.3982 5.72648 18.5065 5.08935 19.2773L0.415141 24.9317C-0.221993 25.7024 -0.11368 26.8438 0.657065 27.4809L4.41392 30.5865C6.29986 27.4242 8.64826 24.5698 11.3658 22.1165Z" fill="white"/>
<path d="M62.6342 22.5081L66.3615 19.427C67.1322 18.7898 68.2735 18.8981 68.9107 19.6689L73.5849 25.3233C74.222 26.0941 74.1137 27.2354 73.3429 27.8725L69.5861 30.9781C67.7001 27.8158 65.3517 24.9614 62.6342 22.5081Z" fill="white"/>
<path d="M27.3265 2C27.3265 0.89543 28.222 0 29.3265 0H43.433C44.5376 0 45.433 0.895431 45.433 2V7.05325C45.433 8.15782 44.5376 9.05325 43.433 9.05325H29.3265C28.222 9.05325 27.3265 8.15782 27.3265 7.05325V2Z" fill="white"/>
<path d="M30.9478 9.95851V13.1442C32.8637 12.8351 34.8293 12.6745 36.8324 12.6745C38.5213 12.6745 40.1835 12.7887 41.8117 13.0097V9.95851H30.9478Z" fill="white"/>
<path d="M50.45 55.4048C51.5784 55.7138 52.7092 55.1757 52.9755 54.2029C53.2419 53.2301 52.5431 52.191 51.4146 51.882L38.707 46.6613C38.367 46.469 37.9941 46.3136 37.5942 46.2041C35.3373 45.5861 33.0759 46.6624 32.5431 48.608C32.0103 50.5536 33.408 52.6318 35.6649 53.2498C36.0648 53.3593 36.4649 53.4156 36.8554 53.4233L50.45 55.4048Z" fill="white"/>
</svg>
