<svg width="604" height="86" viewBox="0 0 604 86" fill="none" xmlns="http://www.w3.org/2000/svg">
<g filter="url(#filter0_d)">
<path d="M4 68H595C597.761 68 600 70.2386 600 73V77H4V68Z" fill="#FF8A00"/>
</g>
<path d="M111.833 15.04C111.833 18.6667 110.553 21.8027 107.993 24.448C105.433 27.0507 101.7 28.928 96.7933 30.08C99.4386 30.8053 101.444 32 102.809 33.664C104.175 35.2853 104.857 37.1627 104.857 39.296C104.857 42.6667 103.791 45.5893 101.657 48.064C99.5666 50.5387 96.4946 52.4587 92.4413 53.824C88.3879 55.1467 83.5026 55.808 77.7853 55.808C75.6519 55.808 73.9453 55.744 72.6653 55.616C72.6226 56.8107 72.1106 57.7067 71.1293 58.304C70.1479 58.9013 68.8893 59.2 67.3533 59.2C65.8173 59.2 64.7506 58.8587 64.1533 58.176C63.5986 57.4933 63.3639 56.4907 63.4493 55.168C63.8333 49.1947 64.5799 42.944 65.6893 36.416C66.7986 29.8453 68.2066 23.5093 69.9133 17.408C70.2119 16.3413 70.8093 15.5947 71.7053 15.168C72.6013 14.7413 73.7746 14.528 75.2253 14.528C77.8279 14.528 79.1293 15.2533 79.1293 16.704C79.1293 17.3013 79.0013 17.984 78.7453 18.752C77.6359 22.08 76.5266 26.6027 75.4173 32.32C74.3079 37.9947 73.5186 43.4133 73.0493 48.576C75.0973 48.7467 76.7613 48.832 78.0413 48.832C84.0146 48.832 88.3879 47.9787 91.1613 46.272C93.9773 44.5227 95.3853 42.304 95.3853 39.616C95.3853 37.7387 94.5746 36.16 92.9533 34.88C91.3746 33.6 88.7079 32.896 84.9533 32.768C84.0999 32.7253 83.5026 32.512 83.1613 32.128C82.8199 31.744 82.6493 31.1253 82.6493 30.272C82.6493 29.0347 82.9053 28.032 83.4173 27.264C83.9293 26.496 84.8679 26.0907 86.2333 26.048C89.2626 25.9627 91.9933 25.5147 94.4253 24.704C96.8999 23.8933 98.8413 22.7627 100.249 21.312C101.657 19.8187 102.361 18.0907 102.361 16.128C102.361 13.6533 101.145 11.712 98.7133 10.304C96.2813 8.85334 92.5479 8.128 87.5133 8.128C82.9479 8.128 78.5319 8.72534 74.2653 9.92C69.9986 11.072 66.3719 12.544 63.3853 14.336C62.0199 15.1467 60.8679 15.552 59.9293 15.552C59.1613 15.552 58.5639 15.296 58.1373 14.784C57.7533 14.2293 57.5613 13.5467 57.5613 12.736C57.5613 11.6693 57.7746 10.752 58.2013 9.984C58.6706 9.216 59.7586 8.34133 61.4653 7.36C65.0493 5.312 69.2519 3.712 74.0733 2.56C78.8946 1.408 83.8226 0.832001 88.8573 0.832001C96.5799 0.832001 102.34 2.13333 106.137 4.736C109.935 7.33867 111.833 10.7733 111.833 15.04Z" fill="white"/>
<path d="M138.585 41.728C139.139 41.728 139.566 41.984 139.865 42.496C140.206 43.008 140.377 43.712 140.377 44.608C140.377 46.3147 139.971 47.6373 139.161 48.576C137.582 50.496 135.342 52.2667 132.441 53.888C129.582 55.5093 126.51 56.32 123.225 56.32C118.745 56.32 115.267 55.104 112.793 52.672C110.318 50.24 109.081 46.912 109.081 42.688C109.081 39.744 109.699 37.0133 110.937 34.496C112.174 31.936 113.881 29.9093 116.057 28.416C118.275 26.9227 120.771 26.176 123.545 26.176C126.019 26.176 128.003 26.9227 129.497 28.416C130.99 29.8667 131.737 31.8507 131.737 34.368C131.737 37.312 130.67 39.8507 128.537 41.984C126.446 44.0747 122.883 45.7387 117.849 46.976C118.915 48.9387 120.942 49.92 123.929 49.92C125.849 49.92 128.025 49.2587 130.457 47.936C132.931 46.5707 135.065 44.8 136.857 42.624C137.369 42.0267 137.945 41.728 138.585 41.728ZM122.457 32.448C120.878 32.448 119.534 33.3653 118.425 35.2C117.358 37.0347 116.825 39.2533 116.825 41.856V41.984C119.342 41.3867 121.326 40.4907 122.777 39.296C124.227 38.1013 124.953 36.7147 124.953 35.136C124.953 34.3253 124.718 33.6853 124.249 33.216C123.822 32.704 123.225 32.448 122.457 32.448Z" fill="white"/>
<path d="M139.71 56.32C138.088 56.32 136.936 55.4667 136.254 53.76C135.614 52.0533 135.294 49.3227 135.294 45.568C135.294 40.0213 136.083 34.752 137.662 29.76C138.046 28.5227 138.664 27.6267 139.518 27.072C140.414 26.4747 141.651 26.176 143.23 26.176C144.083 26.176 144.68 26.2827 145.022 26.496C145.363 26.7093 145.534 27.1147 145.534 27.712C145.534 28.3947 145.214 29.9307 144.574 32.32C144.147 34.0267 143.806 35.52 143.55 36.8C143.294 38.08 143.08 39.6587 142.91 41.536C144.318 37.8667 145.896 34.88 147.646 32.576C149.395 30.272 151.102 28.6293 152.766 27.648C154.472 26.6667 156.03 26.176 157.438 26.176C160.211 26.176 161.598 27.5627 161.598 30.336C161.598 32 161.128 35.008 160.19 39.36C159.379 43.072 158.974 45.5253 158.974 46.72C158.974 48.4267 159.592 49.28 160.83 49.28C161.683 49.28 162.686 48.768 163.838 47.744C165.032 46.6773 166.611 44.9707 168.574 42.624C169.086 42.0267 169.662 41.728 170.302 41.728C170.856 41.728 171.283 41.984 171.582 42.496C171.923 43.008 172.094 43.712 172.094 44.608C172.094 46.3147 171.688 47.6373 170.878 48.576C169.043 50.8373 167.059 52.6933 164.926 54.144C162.835 55.5947 160.446 56.32 157.758 56.32C155.582 56.32 153.939 55.7013 152.83 54.464C151.72 53.184 151.166 51.3493 151.166 48.96C151.166 47.7653 151.464 45.632 152.062 42.56C152.616 39.872 152.894 38.016 152.894 36.992C152.894 36.3093 152.659 35.968 152.19 35.968C151.635 35.968 150.846 36.6933 149.822 38.144C148.84 39.552 147.816 41.4293 146.75 43.776C145.726 46.1227 144.894 48.5973 144.254 51.2C143.784 53.2053 143.23 54.5707 142.59 55.296C141.992 55.9787 141.032 56.32 139.71 56.32Z" fill="white"/>
<path d="M173.764 21.952C171.972 21.952 170.628 21.5467 169.732 20.736C168.836 19.8827 168.388 18.7093 168.388 17.216C168.388 15.7227 168.964 14.4853 170.116 13.504C171.31 12.48 172.782 11.968 174.532 11.968C176.11 11.968 177.39 12.352 178.372 13.12C179.353 13.888 179.844 14.976 179.844 16.384C179.844 18.0907 179.289 19.456 178.18 20.48C177.07 21.4613 175.598 21.952 173.764 21.952ZM185.284 41.856C185.838 41.856 186.265 42.1333 186.564 42.688C186.905 43.2 187.076 43.8613 187.076 44.672C187.076 45.6533 186.926 46.4213 186.628 46.976C186.329 47.5307 185.86 48.0213 185.22 48.448C182.233 50.4107 178.244 53.12 173.252 56.576C171.588 65.4507 169.433 72.4267 166.788 77.504C164.142 82.5813 160.772 85.12 156.676 85.12C154.457 85.12 152.686 84.4373 151.364 83.072C149.998 81.7493 149.316 80 149.316 77.824C149.316 74.7947 150.489 71.552 152.836 68.096C155.182 64.6827 159.598 60.4587 166.084 55.424L166.532 52.16C167.129 48.064 167.598 44.032 167.94 40.064C168.196 37.76 168.601 34.3253 169.156 29.76C169.326 28.5227 169.796 27.6267 170.564 27.072C171.332 26.4747 172.505 26.176 174.084 26.176C175.364 26.176 176.196 26.368 176.58 26.752C177.006 27.136 177.22 27.6693 177.22 28.352C177.22 30.3147 176.516 35.7333 175.108 44.608L174.468 49.024C177.881 46.464 180.996 44.2453 183.812 42.368C184.366 42.0267 184.857 41.856 185.284 41.856ZM157.38 78.912C158.489 78.912 159.705 77.6533 161.028 75.136C162.35 72.6187 163.588 68.5653 164.74 62.976C161.497 65.7493 159.172 68.2453 157.764 70.464C156.313 72.7253 155.588 74.7093 155.588 76.416C155.588 78.08 156.185 78.912 157.38 78.912Z" fill="white"/>
<path d="M190.413 56.32C187.767 56.32 185.655 55.36 184.077 53.44C182.498 51.52 181.709 49.0027 181.709 45.888C181.709 42.4747 182.498 39.2533 184.077 36.224C185.655 33.152 187.746 30.6987 190.349 28.864C192.994 26.9867 195.789 26.048 198.733 26.048C199.671 26.048 200.29 26.24 200.589 26.624C200.93 26.9653 201.207 27.6053 201.421 28.544C202.317 28.3733 203.255 28.288 204.237 28.288C206.327 28.288 207.373 29.0347 207.373 30.528C207.373 31.424 207.053 33.5573 206.413 36.928C205.431 41.8347 204.941 45.248 204.941 47.168C204.941 47.808 205.09 48.32 205.389 48.704C205.73 49.088 206.157 49.28 206.669 49.28C207.479 49.28 208.461 48.768 209.613 47.744C210.765 46.6773 212.322 44.9707 214.285 42.624C214.797 42.0267 215.373 41.728 216.013 41.728C216.567 41.728 216.994 41.984 217.293 42.496C217.634 43.008 217.805 43.712 217.805 44.608C217.805 46.3147 217.399 47.6373 216.589 48.576C214.839 50.752 212.983 52.5867 211.021 54.08C209.058 55.5733 207.159 56.32 205.325 56.32C203.917 56.32 202.615 55.8507 201.421 54.912C200.269 53.9307 199.394 52.608 198.797 50.944C196.578 54.528 193.783 56.32 190.413 56.32ZM192.717 49.856C193.655 49.856 194.551 49.3013 195.405 48.192C196.258 47.0827 196.877 45.6107 197.261 43.776L199.629 32C197.837 32.0427 196.173 32.7253 194.637 34.048C193.143 35.328 191.949 37.0347 191.053 39.168C190.157 41.3013 189.709 43.5627 189.709 45.952C189.709 47.2747 189.965 48.256 190.477 48.896C191.031 49.536 191.778 49.856 192.717 49.856Z" fill="white"/>
<path d="M217.147 56.32C215.526 56.32 214.374 55.4667 213.691 53.76C213.051 52.0533 212.731 49.3227 212.731 45.568C212.731 40.0213 213.521 34.752 215.099 29.76C215.483 28.5227 216.102 27.6267 216.955 27.072C217.851 26.4747 219.089 26.176 220.667 26.176C221.521 26.176 222.118 26.2827 222.459 26.496C222.801 26.7093 222.971 27.1147 222.971 27.712C222.971 28.3947 222.651 29.9307 222.011 32.32C221.585 34.0267 221.243 35.52 220.987 36.8C220.731 38.0373 220.518 39.5947 220.347 41.472C221.499 38.144 222.865 35.328 224.443 33.024C226.065 30.72 227.707 29.0133 229.371 27.904C231.078 26.752 232.678 26.176 234.171 26.176C235.665 26.176 236.71 26.5173 237.307 27.2C237.947 27.8827 238.267 28.928 238.267 30.336C238.267 31.7013 237.862 34.176 237.051 37.76C236.71 39.296 236.475 40.448 236.347 41.216C238.481 35.968 240.849 32.1493 243.451 29.76C246.054 27.3707 248.486 26.176 250.747 26.176C253.521 26.176 254.907 27.5627 254.907 30.336C254.907 32 254.438 35.008 253.499 39.36C252.689 43.072 252.283 45.5253 252.283 46.72C252.283 48.4267 252.902 49.28 254.139 49.28C254.993 49.28 255.995 48.768 257.147 47.744C258.342 46.6773 259.921 44.9707 261.883 42.624C262.395 42.0267 262.971 41.728 263.611 41.728C264.166 41.728 264.593 41.984 264.891 42.496C265.233 43.008 265.403 43.712 265.403 44.608C265.403 46.3147 264.998 47.6373 264.187 48.576C262.353 50.8373 260.369 52.6933 258.235 54.144C256.145 55.5947 253.755 56.32 251.067 56.32C248.891 56.32 247.249 55.7013 246.139 54.464C245.03 53.184 244.475 51.3493 244.475 48.96C244.475 47.7653 244.774 45.632 245.371 42.56C245.926 39.872 246.203 38.016 246.203 36.992C246.203 36.3093 245.969 35.968 245.499 35.968C244.945 35.968 244.155 36.6933 243.131 38.144C242.107 39.552 241.083 41.4293 240.059 43.776C239.035 46.1227 238.203 48.5973 237.563 51.2C237.094 53.248 236.539 54.6133 235.899 55.296C235.302 55.9787 234.321 56.32 232.955 56.32C231.547 56.32 230.481 55.6587 229.755 54.336C229.073 52.9707 228.731 51.328 228.731 49.408C228.731 47.7867 228.945 45.44 229.371 42.368C229.713 39.6373 229.883 37.8453 229.883 36.992C229.883 36.3093 229.649 35.968 229.179 35.968C228.539 35.968 227.729 36.736 226.747 38.272C225.766 39.808 224.806 41.7707 223.867 44.16C222.971 46.5493 222.246 48.896 221.691 51.2C221.222 53.2053 220.667 54.5707 220.027 55.296C219.43 55.9787 218.47 56.32 217.147 56.32Z" fill="white"/>
<path d="M268.612 21.952C266.82 21.952 265.476 21.5467 264.58 20.736C263.684 19.8827 263.236 18.7093 263.236 17.216C263.236 15.7227 263.812 14.4853 264.964 13.504C266.159 12.48 267.631 11.968 269.38 11.968C270.959 11.968 272.239 12.352 273.22 13.12C274.202 13.888 274.692 14.976 274.692 16.384C274.692 18.0907 274.138 19.456 273.028 20.48C271.919 21.4613 270.447 21.952 268.612 21.952ZM268.1 56.32C265.327 56.32 263.3 55.3387 262.02 53.376C260.783 51.4133 260.164 48.8107 260.164 45.568C260.164 43.648 260.399 41.1947 260.868 38.208C261.38 35.1787 262.02 32.3627 262.788 29.76C263.172 28.3947 263.684 27.456 264.324 26.944C264.964 26.432 265.988 26.176 267.396 26.176C269.572 26.176 270.66 26.9013 270.66 28.352C270.66 29.4187 270.255 31.8933 269.444 35.776C268.42 40.4693 267.908 43.648 267.908 45.312C267.908 46.592 268.079 47.5733 268.42 48.256C268.762 48.9387 269.338 49.28 270.148 49.28C270.916 49.28 271.876 48.7467 273.028 47.68C274.18 46.6133 275.716 44.928 277.636 42.624C278.148 42.0267 278.724 41.728 279.364 41.728C279.919 41.728 280.346 41.984 280.644 42.496C280.986 43.008 281.156 43.712 281.156 44.608C281.156 46.3147 280.751 47.6373 279.94 48.576C275.716 53.7387 271.77 56.32 268.1 56.32Z" fill="white"/>
<path d="M280.522 56.32C278.901 56.32 277.749 55.4667 277.066 53.76C276.426 52.0533 276.106 49.3227 276.106 45.568C276.106 40.0213 276.896 34.752 278.474 29.76C278.858 28.5227 279.477 27.6267 280.33 27.072C281.226 26.4747 282.464 26.176 284.042 26.176C284.896 26.176 285.493 26.2827 285.834 26.496C286.176 26.7093 286.346 27.1147 286.346 27.712C286.346 28.3947 286.026 29.9307 285.386 32.32C284.96 34.0267 284.618 35.52 284.362 36.8C284.106 38.08 283.893 39.6587 283.722 41.536C285.13 37.8667 286.709 34.88 288.458 32.576C290.208 30.272 291.914 28.6293 293.578 27.648C295.285 26.6667 296.842 26.176 298.25 26.176C299.616 26.176 300.64 26.5387 301.322 27.264C302.048 27.9467 302.41 28.9707 302.41 30.336C302.41 31.4453 302.176 33.536 301.706 36.608C301.28 39.2107 300.938 41.6853 300.682 44.032C300.426 46.336 300.298 48.9173 300.298 51.776C300.298 53.3973 299.957 54.5707 299.274 55.296C298.634 55.9787 297.568 56.32 296.074 56.32C294.666 56.32 293.642 55.9573 293.002 55.232C292.362 54.5067 292.042 53.4187 292.042 51.968C292.042 50.2613 292.341 47.4453 292.938 43.52C293.45 40.1067 293.706 37.9307 293.706 36.992C293.706 36.3093 293.472 35.968 293.002 35.968C292.448 35.968 291.658 36.6933 290.634 38.144C289.653 39.552 288.629 41.4293 287.562 43.776C286.538 46.1227 285.706 48.5973 285.066 51.2C284.597 53.2053 284.042 54.5707 283.402 55.296C282.805 55.9787 281.845 56.32 280.522 56.32Z" fill="white"/>
<path d="M377.932 41.856C378.486 41.856 378.913 42.1333 379.212 42.688C379.553 43.2 379.724 43.8613 379.724 44.672C379.724 45.6533 379.574 46.4213 379.276 46.976C378.977 47.5307 378.508 48.0213 377.868 48.448C375.35 50.112 371.34 52.8427 365.836 56.64C364.172 65.472 362.017 72.4267 359.372 77.504C356.726 82.5813 353.377 85.12 349.324 85.12C347.148 85.12 345.377 84.4373 344.012 83.072C342.646 81.7493 341.964 80 341.964 77.824C341.964 75.8187 342.412 73.792 343.308 71.744C344.204 69.696 345.868 67.328 348.3 64.64C350.774 61.952 354.252 58.88 358.732 55.424L358.924 54.208C355.553 55.616 352.246 56.32 349.004 56.32C344.225 56.32 340.022 55.4027 336.396 53.568C332.769 51.6907 329.953 49.0453 327.948 45.632C325.942 42.2187 324.94 38.2507 324.94 33.728C324.94 27.4133 326.134 21.8453 328.524 17.024C330.913 12.16 334.198 8.40533 338.38 5.76C342.604 3.072 347.318 1.728 352.524 1.728C357.516 1.728 361.249 2.90133 363.724 5.248C366.241 7.552 367.5 10.624 367.5 14.464C367.5 16.9813 367.03 19.008 366.092 20.544C365.196 22.0373 363.894 22.784 362.188 22.784C361.036 22.784 360.097 22.5067 359.372 21.952C358.689 21.3973 358.348 20.6293 358.348 19.648C358.348 19.2213 358.433 18.496 358.604 17.472C358.86 16.2773 358.988 15.3387 358.988 14.656C358.988 12.864 358.433 11.4773 357.324 10.496C356.257 9.51467 354.444 9.024 351.884 9.024C348.769 9.024 345.868 9.92 343.18 11.712C340.534 13.504 338.401 16.192 336.78 19.776C335.158 23.3173 334.348 27.584 334.348 32.576C334.348 37.696 335.734 41.664 338.508 44.48C341.324 47.2533 345.377 48.64 350.668 48.64C353.612 48.64 356.684 47.9787 359.884 46.656L360.78 38.848H354.252C353.057 38.848 352.14 38.5707 351.5 38.016C350.86 37.4187 350.54 36.4587 350.54 35.136C350.54 33.9413 350.86 33.0027 351.5 32.32C352.14 31.6373 352.993 31.296 354.06 31.296H366.028C366.966 31.296 367.734 31.616 368.332 32.256C368.972 32.8533 369.228 33.728 369.1 34.88C368.972 36.2453 368.545 39.3387 367.82 44.16L367.116 49.024C370.529 46.464 373.644 44.2453 376.46 42.368C377.014 42.0267 377.505 41.856 377.932 41.856ZM350.028 78.912C351.137 78.912 352.353 77.6533 353.676 75.136C354.998 72.6187 356.236 68.5653 357.388 62.976C354.145 65.7493 351.798 68.2453 350.348 70.464C348.94 72.7253 348.236 74.7093 348.236 76.416C348.236 78.08 348.833 78.912 350.028 78.912Z" fill="white"/>
<path d="M408.431 36.352C408.985 36.352 409.412 36.6293 409.711 37.184C410.009 37.7387 410.159 38.4427 410.159 39.296C410.159 41.344 409.54 42.56 408.303 42.944C405.743 43.84 402.927 44.352 399.855 44.48C399.044 48.064 397.444 50.944 395.055 53.12C392.665 55.2533 389.956 56.32 386.927 56.32C384.367 56.32 382.169 55.7013 380.335 54.464C378.543 53.2267 377.177 51.584 376.239 49.536C375.3 47.488 374.831 45.2693 374.831 42.88C374.831 39.6373 375.449 36.7573 376.687 34.24C377.924 31.68 379.631 29.696 381.807 28.288C383.983 26.8373 386.393 26.112 389.039 26.112C392.281 26.112 394.884 27.2427 396.847 29.504C398.852 31.7227 400.025 34.4747 400.367 37.76C402.372 37.632 404.761 37.2053 407.535 36.48C407.876 36.3947 408.175 36.352 408.431 36.352ZM387.439 49.536C388.804 49.536 389.977 48.9813 390.959 47.872C391.983 46.7627 392.665 45.1627 393.007 43.072C391.684 42.176 390.66 41.0027 389.935 39.552C389.252 38.1013 388.911 36.5653 388.911 34.944C388.911 34.2613 388.975 33.5787 389.103 32.896H388.783C387.076 32.896 385.647 33.728 384.495 35.392C383.385 37.0133 382.831 39.3173 382.831 42.304C382.831 44.6507 383.279 46.4427 384.175 47.68C385.113 48.9173 386.201 49.536 387.439 49.536Z" fill="white"/>
<path d="M409.21 56.32C407.588 56.32 406.436 55.4667 405.754 53.76C405.114 52.0533 404.794 49.3227 404.794 45.568C404.794 40.0213 405.583 34.752 407.162 29.76C407.546 28.5227 408.164 27.6267 409.018 27.072C409.914 26.4747 411.151 26.176 412.73 26.176C413.583 26.176 414.18 26.2827 414.522 26.496C414.863 26.7093 415.034 27.1147 415.034 27.712C415.034 28.3947 414.714 29.9307 414.074 32.32C413.647 34.0267 413.306 35.52 413.05 36.8C412.794 38.0373 412.58 39.5947 412.41 41.472C413.562 38.144 414.927 35.328 416.506 33.024C418.127 30.72 419.77 29.0133 421.434 27.904C423.14 26.752 424.74 26.176 426.234 26.176C427.727 26.176 428.772 26.5173 429.37 27.2C430.01 27.8827 430.33 28.928 430.33 30.336C430.33 31.7013 429.924 34.176 429.114 37.76C428.772 39.296 428.538 40.448 428.41 41.216C430.543 35.968 432.911 32.1493 435.514 29.76C438.116 27.3707 440.548 26.176 442.81 26.176C445.583 26.176 446.97 27.5627 446.97 30.336C446.97 32 446.5 35.008 445.562 39.36C444.751 43.072 444.346 45.5253 444.346 46.72C444.346 48.4267 444.964 49.28 446.202 49.28C447.055 49.28 448.058 48.768 449.21 47.744C450.404 46.6773 451.983 44.9707 453.946 42.624C454.458 42.0267 455.034 41.728 455.674 41.728C456.228 41.728 456.655 41.984 456.954 42.496C457.295 43.008 457.466 43.712 457.466 44.608C457.466 46.3147 457.06 47.6373 456.25 48.576C454.415 50.8373 452.431 52.6933 450.298 54.144C448.207 55.5947 445.818 56.32 443.13 56.32C440.954 56.32 439.311 55.7013 438.202 54.464C437.092 53.184 436.538 51.3493 436.538 48.96C436.538 47.7653 436.836 45.632 437.434 42.56C437.988 39.872 438.266 38.016 438.266 36.992C438.266 36.3093 438.031 35.968 437.562 35.968C437.007 35.968 436.218 36.6933 435.194 38.144C434.17 39.552 433.146 41.4293 432.122 43.776C431.098 46.1227 430.266 48.5973 429.626 51.2C429.156 53.248 428.602 54.6133 427.962 55.296C427.364 55.9787 426.383 56.32 425.018 56.32C423.61 56.32 422.543 55.6587 421.818 54.336C421.135 52.9707 420.794 51.328 420.794 49.408C420.794 47.7867 421.007 45.44 421.434 42.368C421.775 39.6373 421.946 37.8453 421.946 36.992C421.946 36.3093 421.711 35.968 421.242 35.968C420.602 35.968 419.791 36.736 418.81 38.272C417.828 39.808 416.868 41.7707 415.93 44.16C415.034 46.5493 414.308 48.896 413.754 51.2C413.284 53.2053 412.73 54.5707 412.09 55.296C411.492 55.9787 410.532 56.32 409.21 56.32Z" fill="white"/>
<path d="M480.835 41.728C481.389 41.728 481.816 41.984 482.115 42.496C482.456 43.008 482.627 43.712 482.627 44.608C482.627 46.3147 482.221 47.6373 481.411 48.576C479.832 50.496 477.592 52.2667 474.691 53.888C471.832 55.5093 468.76 56.32 465.475 56.32C460.995 56.32 457.517 55.104 455.043 52.672C452.568 50.24 451.331 46.912 451.331 42.688C451.331 39.744 451.949 37.0133 453.187 34.496C454.424 31.936 456.131 29.9093 458.307 28.416C460.525 26.9227 463.021 26.176 465.795 26.176C468.269 26.176 470.253 26.9227 471.747 28.416C473.24 29.8667 473.987 31.8507 473.987 34.368C473.987 37.312 472.92 39.8507 470.787 41.984C468.696 44.0747 465.133 45.7387 460.099 46.976C461.165 48.9387 463.192 49.92 466.179 49.92C468.099 49.92 470.275 49.2587 472.707 47.936C475.181 46.5707 477.315 44.8 479.107 42.624C479.619 42.0267 480.195 41.728 480.835 41.728ZM464.707 32.448C463.128 32.448 461.784 33.3653 460.675 35.2C459.608 37.0347 459.075 39.2533 459.075 41.856V41.984C461.592 41.3867 463.576 40.4907 465.027 39.296C466.477 38.1013 467.203 36.7147 467.203 35.136C467.203 34.3253 466.968 33.6853 466.499 33.216C466.072 32.704 465.475 32.448 464.707 32.448Z" fill="white"/>
<path d="M499.304 49.024C500.242 48.9813 500.946 49.3227 501.416 50.048C501.928 50.7307 502.184 51.584 502.184 52.608C502.184 53.6747 501.928 54.6133 501.416 55.424C500.946 56.2347 500.285 56.64 499.432 56.64C497.896 56.64 496.445 56.6187 495.08 56.576C493.757 56.5333 492.584 56.4907 491.56 56.448C487.634 56.2773 484.861 56.192 483.24 56.192C482.685 56.192 481.874 56.384 480.808 56.768C479.442 57.1947 478.504 57.408 477.992 57.408C475.73 57.408 474.6 55.9573 474.6 53.056C474.6 51.0933 475.304 48.8747 476.712 46.4C478.12 43.8827 479.954 41.4507 482.216 39.104C484.477 36.7573 486.824 34.7947 489.256 33.216L480.232 33.472C479.293 33.5147 478.568 33.1947 478.056 32.512C477.586 31.7867 477.352 30.9333 477.352 29.952C477.352 28.928 477.586 28.032 478.056 27.264C478.568 26.4533 479.25 26.048 480.104 26.048C481.981 26.048 484.306 26.1973 487.08 26.496C487.549 26.5387 488.552 26.624 490.088 26.752C491.666 26.88 493.117 26.944 494.44 26.944C494.866 26.944 495.677 26.7733 496.872 26.432C497.085 26.3893 497.49 26.2827 498.088 26.112C498.728 25.9413 499.261 25.856 499.688 25.856C500.37 25.856 500.925 26.1547 501.352 26.752C501.821 27.3493 502.056 28.2667 502.056 29.504C502.056 30.8693 501.714 31.9573 501.032 32.768C500.392 33.5787 499.41 34.304 498.088 34.944C496.594 35.6267 494.845 36.8 492.84 38.464C490.834 40.128 488.936 41.984 487.144 44.032C485.352 46.0373 484.029 47.936 483.176 49.728L499.304 49.024Z" fill="white"/>
<path d="M161 68H173.5V77H158.5L161 68Z" fill="#FF8A00"/>
<path d="M354.5 68H367V77H352L354.5 68Z" fill="#FF8A00"/>
<defs>
<filter id="filter0_d" x="0" y="68" width="604" height="17" filterUnits="userSpaceOnUse" color-interpolation-filters="sRGB">
<feFlood flood-opacity="0" result="BackgroundImageFix"/>
<feColorMatrix in="SourceAlpha" type="matrix" values="0 0 0 0 0 0 0 0 0 0 0 0 0 0 0 0 0 0 127 0"/>
<feOffset dy="4"/>
<feGaussianBlur stdDeviation="2"/>
<feColorMatrix type="matrix" values="0 0 0 0 0 0 0 0 0 0 0 0 0 0 0 0 0 0 0.25 0"/>
<feBlend mode="normal" in2="BackgroundImageFix" result="effect1_dropShadow"/>
<feBlend mode="normal" in="SourceGraphic" in2="effect1_dropShadow" result="shape"/>
</filter>
</defs>
</svg>
